<svg xmlns="http://www.w3.org/2000/svg" width="360" height="504" viewBox="0 0 360 504" role="img" aria-label="J of Hearts">
<defs>
    <radialGradient id="card" cx="50%" cy="36%" r="85%"><stop offset="0%" stop-color="#FFFDF7"/><stop offset="62%" stop-color="#F8F1E1"/><stop offset="100%" stop-color="#EEE2C8"/></radialGradient>
    <radialGradient id="vignette" cx="50%" cy="48%" r="72%"><stop offset="58%" stop-color="#3A2A08" stop-opacity="0"/><stop offset="100%" stop-color="#3A2A08" stop-opacity="0.14"/></radialGradient>
    <linearGradient id="goldFoil" x1="0" y1="0" x2="1" y2="1"><stop offset="0%" stop-color="#9A7B2E"/><stop offset="18%" stop-color="#F3D77A"/><stop offset="38%" stop-color="#C09838"/><stop offset="52%" stop-color="#FBEFC4"/><stop offset="66%" stop-color="#C09838"/><stop offset="84%" stop-color="#E6CB7E"/><stop offset="100%" stop-color="#8A6B26"/></linearGradient>
    <linearGradient id="panel" x1="0" y1="0" x2="0" y2="1"><stop offset="0%" stop-color="#FCF8EE"/><stop offset="100%" stop-color="#F4EAD2"/></linearGradient>
    <linearGradient id="gold" x1="0" y1="0" x2="0" y2="1"><stop offset="0%" stop-color="#F6DA82"/><stop offset="50%" stop-color="#E3B23C"/><stop offset="100%" stop-color="#C18C26"/></linearGradient>
    <linearGradient id="hair" x1="0" y1="0" x2="0" y2="1"><stop offset="0%" stop-color="#A85C3A"/><stop offset="100%" stop-color="#74391F"/></linearGradient>
    <linearGradient id="skin" x1="0" y1="0" x2="0" y2="1"><stop offset="0%" stop-color="#F8D8B2"/><stop offset="100%" stop-color="#EBBA8C"/></linearGradient>
    <linearGradient id="cream" x1="0" y1="0" x2="0" y2="1"><stop offset="0%" stop-color="#FFFBEF"/><stop offset="100%" stop-color="#F2E2BF"/></linearGradient>
    <linearGradient id="flower" x1="0" y1="0" x2="0" y2="1"><stop offset="0%" stop-color="#F9DD6E"/><stop offset="100%" stop-color="#E8B238"/></linearGradient>
    <linearGradient id="steel" x1="0" y1="0" x2="0" y2="1"><stop offset="0%" stop-color="#EEF2F6"/><stop offset="50%" stop-color="#C2CBD6"/><stop offset="100%" stop-color="#8A97A8"/></linearGradient>
    <linearGradient id="robe" x1="0" y1="0" x2="0" y2="1"><stop offset="0%" stop-color="#E2384D"/><stop offset="55%" stop-color="#C8102E"/><stop offset="100%" stop-color="#9C0B23"/></linearGradient>
       <linearGradient id="robeDark" x1="0" y1="0" x2="0" y2="1"><stop offset="0%" stop-color="#A60D26"/><stop offset="100%" stop-color="#760818"/></linearGradient>
    <filter id="shadow" x="-25%" y="-25%" width="150%" height="160%"><feDropShadow dx="0" dy="6" stdDeviation="9" flood-color="#1c1206" flood-opacity="0.32"/></filter>
    <filter id="grain"><feTurbulence type="fractalNoise" baseFrequency="0.9" numOctaves="2" seed="11" stitchTiles="stitch" result="t"/><feColorMatrix in="t" type="matrix" values="0 0 0 0 0  0 0 0 0 0  0 0 0 0 0  0.5 0.5 0.5 0 0"/></filter>
    <filter id="emboss" x="-45%" y="-45%" width="190%" height="190%"><feDropShadow dx="0" dy="0.5" stdDeviation="0.4" flood-color="#FFFFFF" flood-opacity="0.55"/></filter>
    <filter id="gild" x="-55%" y="-55%" width="210%" height="210%"><feDropShadow dx="0.5" dy="0.8" stdDeviation="0.5" flood-color="#B98D34" flood-opacity="0.6"/></filter>
    <clipPath id="cardClip"><rect x="8" y="8" width="344" height="488" rx="22"/></clipPath>
    <clipPath id="topClip"><rect x="92" y="96" width="176" height="156"/></clipPath>
    <pattern id="diaper" width="26" height="26" patternUnits="userSpaceOnUse" patternTransform="rotate(45 0 0)">
      <path d="M13 4 L22 13 L13 22 L4 13 Z" fill="none" stroke="#C9A24B" stroke-width="0.8"/>
      <circle cx="13" cy="13" r="1.1" fill="#C9A24B"/>
    </pattern>
    <linearGradient id="backField" x1="0" y1="0" x2="0" y2="1"><stop offset="0%" stop-color="#6E1226"/><stop offset="100%" stop-color="#380914"/></linearGradient>
    <pattern id="backPat" width="34" height="34" patternUnits="userSpaceOnUse" patternTransform="rotate(45 0 0)">
      <path d="M17 3 L31 17 L17 31 L3 17 Z" fill="none" stroke="#E3B23C" stroke-width="1" opacity="0.5"/>
      <circle cx="17" cy="17" r="2.3" fill="#E3B23C" opacity="0.45"/>
      <circle cx="0" cy="0" r="1.3" fill="#E3B23C" opacity="0.4"/><circle cx="34" cy="0" r="1.3" fill="#E3B23C" opacity="0.4"/><circle cx="0" cy="34" r="1.3" fill="#E3B23C" opacity="0.4"/><circle cx="34" cy="34" r="1.3" fill="#E3B23C" opacity="0.4"/>
    </pattern>
  </defs>
<rect x="8" y="8" width="344" height="488" rx="22" fill="url(#card)"/>
  <g clip-path="url(#cardClip)">
    <rect x="8" y="8" width="344" height="488" fill="#000000" filter="url(#grain)" opacity="0.06"/>
    <rect x="8" y="8" width="344" height="488" fill="url(#vignette)"/>
  </g>
  <rect x="8.6" y="8.6" width="342.8" height="486.8" rx="21.4" fill="none" stroke="url(#goldFoil)" stroke-width="2.6"/>
  <rect x="13" y="13" width="334" height="478" rx="18" fill="none" stroke="#8A6D2F" stroke-width="0.6" opacity="0.5"/>
  <rect x="17" y="17" width="326" height="470" rx="15" fill="none" stroke="url(#goldFoil)" stroke-width="1.1"/>
<rect x="92" y="96" width="176" height="312" rx="11" fill="url(#panel)" stroke="url(#goldFoil)" stroke-width="1.6"/>
  <rect x="95.5" y="99.5" width="169" height="305" rx="8.5" fill="none" stroke="#8A6D2F" stroke-width="0.5" opacity="0.4"/>
  <rect x="98" y="102" width="164" height="300" rx="6.5" fill="none" stroke="#C8102E" stroke-width="0.7" opacity="0.3"/>
<g filter="url(#gild)"><text x="42" y="74" text-anchor="middle" font-family="Georgia, 'Times New Roman', serif" font-size="40" font-weight="600" fill="#C8102E">J</text><g transform="translate(42 93) scale(0.72) rotate(0) translate(-16 -16)" fill="#C8102E"><path d="M16 28 C16 28 4 20 4 12 C4 7.5 7.5 5 11 5 C13.6 5 15.3 6.6 16 8.2 C16.7 6.6 18.4 5 21 5 C24.5 5 28 7.5 28 12 C28 20 16 28 16 28 Z"/></g></g><g filter="url(#gild)" transform="rotate(180 180 252)"><text x="42" y="74" text-anchor="middle" font-family="Georgia, 'Times New Roman', serif" font-size="40" font-weight="600" fill="#C8102E">J</text><g transform="translate(42 93) scale(0.72) rotate(0) translate(-16 -16)" fill="#C8102E"><path d="M16 28 C16 28 4 20 4 12 C4 7.5 7.5 5 11 5 C13.6 5 15.3 6.6 16 8.2 C16.7 6.6 18.4 5 21 5 C24.5 5 28 7.5 28 12 C28 20 16 28 16 28 Z"/></g></g>
<rect x="98" y="102" width="164" height="300" rx="7" fill="url(#diaper)" opacity="0.22"/><g clip-path="url(#topClip)">
  <path d="M164,162 C153,174 153,200 163,224 L172,220 C165,202 166,182 177,170 Z" fill="url(#hair)"/>
  <path d="M196,162 C207,174 207,200 197,224 L188,220 C195,202 194,182 183,170 Z" fill="url(#hair)"/>
  <path d="M162,180 C162,161 170,152 180,152 C190,152 198,161 198,180 C198,200 190,213 180,213 C170,213 162,200 162,180 Z" fill="url(#skin)"/>
  <path d="M169,176 Q174,172 179,176" stroke="#6E4326" stroke-width="1.4" fill="none" stroke-linecap="round"/>
  <path d="M181,176 Q186,172 191,176" stroke="#6E4326" stroke-width="1.4" fill="none" stroke-linecap="round"/>
  <path d="M170,183 Q174,179 179,183 Q174,187 170,183 Z" fill="#FFFFFF"/>
  <circle cx="174.4" cy="183" r="2" fill="#5A3A28"/><circle cx="175.2" cy="182.2" r="0.6" fill="#FFFFFF"/>
  <path d="M181,183 Q186,179 190,183 Q186,187 181,183 Z" fill="#FFFFFF"/>
  <circle cx="185.6" cy="183" r="2" fill="#5A3A28"/><circle cx="186.4" cy="182.2" r="0.6" fill="#FFFFFF"/>
  <path d="M180,185 C179,190 178,193 180,195 Q182,196 183,194" stroke="#D49A6E" stroke-width="1.2" fill="none" stroke-linecap="round"/>
  <circle cx="169" cy="191" r="3.2" fill="#E89C9C" opacity="0.4"/><circle cx="191" cy="191" r="3.2" fill="#E89C9C" opacity="0.4"/><path d="M175,199 Q180,196 185,199 Q180,204 175,199 Z" fill="#C8102E"/><path d="M175,199 Q180,201 185,199" stroke="#9C0B23" stroke-width="0.7" fill="none"/>
  <path d="M204,150 C222,144 228,122 221,104 C214,122 210,136 199,148 Z" fill="#FBFBF6" stroke="#C9912A" stroke-width="0.7"/>
  <path d="M209,140 Q215,128 219,112" stroke="#D9C28A" stroke-width="0.6" fill="none"/>
  <path d="M154,158 Q156,130 182,130 Q207,132 205,160 Q190,150 180,150 Q165,150 154,158 Z" fill="url(#robe)" stroke="#000000" stroke-opacity="0.18" stroke-width="1"/>
  <path d="M152,157 Q180,149 206,159 L204,167 Q180,157 154,165 Z" fill="url(#gold)" stroke="#A87C2A" stroke-width="0.7"/>
  <circle cx="171" cy="142" r="4" fill="url(#gold)" stroke="#A87C2A" stroke-width="0.5"/><g transform="translate(171 142) scale(0.24) rotate(0) translate(-16 -16)" fill="#C8102E" filter="url(#emboss)"><path d="M16 28 C16 28 4 20 4 12 C4 7.5 7.5 5 11 5 C13.6 5 15.3 6.6 16 8.2 C16.7 6.6 18.4 5 21 5 C24.5 5 28 7.5 28 12 C28 20 16 28 16 28 Z"/></g>
  <path d="M173,206 L173,214 Q180,219 187,214 L187,206 Z" fill="url(#skin)"/>
  <path d="M148,214 C148,227 138,239 130,251 C128,253 127,256 126,258 L234,258 C233,256 232,253 230,251 C222,239 212,227 212,214 C198,229 162,229 148,214 Z" fill="url(#robe)" stroke="#000000" stroke-opacity="0.18" stroke-width="1"/>
  <ellipse cx="144" cy="231" rx="14" ry="12" fill="url(#robeDark)"/><ellipse cx="216" cy="231" rx="14" ry="12" fill="url(#robeDark)"/>
  <path d="M150,220 C146,234 140,248 135,257" stroke="#E3B23C" stroke-width="1.5" fill="none" opacity="0.85"/>
  <path d="M210,220 C214,234 220,248 225,257" stroke="#E3B23C" stroke-width="1.5" fill="none" opacity="0.85"/>
  <path d="M156,218 Q170,211 180,216 Q190,211 204,218 L196,233 L188,224 L180,231 L172,224 L164,233 Z" fill="url(#cream)" stroke="#C9912A" stroke-width="1"/>
  <path d="M166,228 L194,228 L200,258 L160,258 Z" fill="#FBF3DD" stroke="#C9912A" stroke-width="0.8"/>
  <path d="M173,234 L187,234 M170,244 L190,244 M167,253 L193,253" stroke="#E0C98A" stroke-width="0.5" opacity="0.7"/>
  <g transform="translate(180 240) scale(0.58) rotate(0) translate(-16 -16)" fill="#C8102E" filter="url(#emboss)"><path d="M16 28 C16 28 4 20 4 12 C4 7.5 7.5 5 11 5 C13.6 5 15.3 6.6 16 8.2 C16.7 6.6 18.4 5 21 5 C24.5 5 28 7.5 28 12 C28 20 16 28 16 28 Z"/></g><g transform="translate(180 253) scale(0.48) rotate(0) translate(-16 -16)" fill="#C8102E" filter="url(#emboss)"><path d="M16 28 C16 28 4 20 4 12 C4 7.5 7.5 5 11 5 C13.6 5 15.3 6.6 16 8.2 C16.7 6.6 18.4 5 21 5 C24.5 5 28 7.5 28 12 C28 20 16 28 16 28 Z"/></g>
  <rect x="140" y="150" width="3" height="108" rx="1" fill="#6B4A2A"/>
  <path d="M141.5,150 L150,124 L131,134 Z" fill="url(#steel)" stroke="#8A97A8" stroke-width="0.5"/>
  <path d="M141.5,128 L141.5,114" stroke="url(#steel)" stroke-width="3" stroke-linecap="round"/>
  <circle cx="141.5" cy="150" r="2.2" fill="url(#gold)"/></g>
  <g transform="rotate(180 180 252)"><g clip-path="url(#topClip)">
  <path d="M164,162 C153,174 153,200 163,224 L172,220 C165,202 166,182 177,170 Z" fill="url(#hair)"/>
  <path d="M196,162 C207,174 207,200 197,224 L188,220 C195,202 194,182 183,170 Z" fill="url(#hair)"/>
  <path d="M162,180 C162,161 170,152 180,152 C190,152 198,161 198,180 C198,200 190,213 180,213 C170,213 162,200 162,180 Z" fill="url(#skin)"/>
  <path d="M169,176 Q174,172 179,176" stroke="#6E4326" stroke-width="1.4" fill="none" stroke-linecap="round"/>
  <path d="M181,176 Q186,172 191,176" stroke="#6E4326" stroke-width="1.4" fill="none" stroke-linecap="round"/>
  <path d="M170,183 Q174,179 179,183 Q174,187 170,183 Z" fill="#FFFFFF"/>
  <circle cx="174.4" cy="183" r="2" fill="#5A3A28"/><circle cx="175.2" cy="182.2" r="0.6" fill="#FFFFFF"/>
  <path d="M181,183 Q186,179 190,183 Q186,187 181,183 Z" fill="#FFFFFF"/>
  <circle cx="185.6" cy="183" r="2" fill="#5A3A28"/><circle cx="186.4" cy="182.2" r="0.6" fill="#FFFFFF"/>
  <path d="M180,185 C179,190 178,193 180,195 Q182,196 183,194" stroke="#D49A6E" stroke-width="1.2" fill="none" stroke-linecap="round"/>
  <circle cx="169" cy="191" r="3.2" fill="#E89C9C" opacity="0.4"/><circle cx="191" cy="191" r="3.2" fill="#E89C9C" opacity="0.4"/><path d="M175,199 Q180,196 185,199 Q180,204 175,199 Z" fill="#C8102E"/><path d="M175,199 Q180,201 185,199" stroke="#9C0B23" stroke-width="0.7" fill="none"/>
  <path d="M204,150 C222,144 228,122 221,104 C214,122 210,136 199,148 Z" fill="#FBFBF6" stroke="#C9912A" stroke-width="0.7"/>
  <path d="M209,140 Q215,128 219,112" stroke="#D9C28A" stroke-width="0.6" fill="none"/>
  <path d="M154,158 Q156,130 182,130 Q207,132 205,160 Q190,150 180,150 Q165,150 154,158 Z" fill="url(#robe)" stroke="#000000" stroke-opacity="0.18" stroke-width="1"/>
  <path d="M152,157 Q180,149 206,159 L204,167 Q180,157 154,165 Z" fill="url(#gold)" stroke="#A87C2A" stroke-width="0.7"/>
  <circle cx="171" cy="142" r="4" fill="url(#gold)" stroke="#A87C2A" stroke-width="0.5"/><g transform="translate(171 142) scale(0.24) rotate(0) translate(-16 -16)" fill="#C8102E" filter="url(#emboss)"><path d="M16 28 C16 28 4 20 4 12 C4 7.5 7.5 5 11 5 C13.6 5 15.3 6.6 16 8.2 C16.7 6.6 18.4 5 21 5 C24.5 5 28 7.5 28 12 C28 20 16 28 16 28 Z"/></g>
  <path d="M173,206 L173,214 Q180,219 187,214 L187,206 Z" fill="url(#skin)"/>
  <path d="M148,214 C148,227 138,239 130,251 C128,253 127,256 126,258 L234,258 C233,256 232,253 230,251 C222,239 212,227 212,214 C198,229 162,229 148,214 Z" fill="url(#robe)" stroke="#000000" stroke-opacity="0.18" stroke-width="1"/>
  <ellipse cx="144" cy="231" rx="14" ry="12" fill="url(#robeDark)"/><ellipse cx="216" cy="231" rx="14" ry="12" fill="url(#robeDark)"/>
  <path d="M150,220 C146,234 140,248 135,257" stroke="#E3B23C" stroke-width="1.5" fill="none" opacity="0.85"/>
  <path d="M210,220 C214,234 220,248 225,257" stroke="#E3B23C" stroke-width="1.5" fill="none" opacity="0.85"/>
  <path d="M156,218 Q170,211 180,216 Q190,211 204,218 L196,233 L188,224 L180,231 L172,224 L164,233 Z" fill="url(#cream)" stroke="#C9912A" stroke-width="1"/>
  <path d="M166,228 L194,228 L200,258 L160,258 Z" fill="#FBF3DD" stroke="#C9912A" stroke-width="0.8"/>
  <path d="M173,234 L187,234 M170,244 L190,244 M167,253 L193,253" stroke="#E0C98A" stroke-width="0.5" opacity="0.7"/>
  <g transform="translate(180 240) scale(0.58) rotate(0) translate(-16 -16)" fill="#C8102E" filter="url(#emboss)"><path d="M16 28 C16 28 4 20 4 12 C4 7.5 7.5 5 11 5 C13.6 5 15.3 6.6 16 8.2 C16.7 6.6 18.4 5 21 5 C24.5 5 28 7.5 28 12 C28 20 16 28 16 28 Z"/></g><g transform="translate(180 253) scale(0.48) rotate(0) translate(-16 -16)" fill="#C8102E" filter="url(#emboss)"><path d="M16 28 C16 28 4 20 4 12 C4 7.5 7.5 5 11 5 C13.6 5 15.3 6.6 16 8.2 C16.7 6.6 18.4 5 21 5 C24.5 5 28 7.5 28 12 C28 20 16 28 16 28 Z"/></g>
  <rect x="140" y="150" width="3" height="108" rx="1" fill="#6B4A2A"/>
  <path d="M141.5,150 L150,124 L131,134 Z" fill="url(#steel)" stroke="#8A97A8" stroke-width="0.5"/>
  <path d="M141.5,128 L141.5,114" stroke="url(#steel)" stroke-width="3" stroke-linecap="round"/>
  <circle cx="141.5" cy="150" r="2.2" fill="url(#gold)"/></g></g>
  <g stroke="#C9A24B" stroke-width="1"><line x1="100" y1="250" x2="260" y2="250"/><line x1="100" y1="254" x2="260" y2="254"/></g>
  <circle cx="180" cy="252" r="11" fill="url(#cream)" stroke="#C9A24B" stroke-width="1.4"/>
  <g transform="translate(180 252) scale(0.6) rotate(0) translate(-16 -16)" fill="#C8102E" filter="url(#emboss)"><path d="M16 28 C16 28 4 20 4 12 C4 7.5 7.5 5 11 5 C13.6 5 15.3 6.6 16 8.2 C16.7 6.6 18.4 5 21 5 C24.5 5 28 7.5 28 12 C28 20 16 28 16 28 Z"/></g>
</svg>