<svg xmlns="http://www.w3.org/2000/svg" width="360" height="360" viewBox="0 0 360 360" fill="none">
  <!--
    Seamless doodle tile composed from Lucide icons (ISC license,
    https://lucide.dev). Used as a CSS mask (alpha) and tinted by the theme.
  -->
  <defs>
    <g id="ic-0"><path d="M12.67 19a2 2 0 0 0 1.416-.588l6.154-6.172a6 6 0 0 0-8.49-8.49L5.586 9.914A2 2 0 0 0 5 11.328V18a1 1 0 0 0 1 1z" />
  <path d="M16 8 2 22" />
  <path d="M17.5 15H9" /></g>
    <g id="ic-1"><path d="M13.997 4a2 2 0 0 1 1.76 1.05l.486.9A2 2 0 0 0 18.003 7H20a2 2 0 0 1 2 2v9a2 2 0 0 1-2 2H4a2 2 0 0 1-2-2V9a2 2 0 0 1 2-2h1.997a2 2 0 0 0 1.759-1.048l.489-.904A2 2 0 0 1 10.004 4z" />
  <circle cx="12" cy="13" r="3" /></g>
    <g id="ic-2"><path d="M10 2v2" />
  <path d="M14 2v2" />
  <path d="M16 8a1 1 0 0 1 1 1v8a4 4 0 0 1-4 4H7a4 4 0 0 1-4-4V9a1 1 0 0 1 1-1h14a4 4 0 1 1 0 8h-1" />
  <path d="M6 2v2" /></g>
    <g id="ic-3"><path d="M12 13v7a2 2 0 0 0 4 0" />
  <path d="M12 2v2" />
  <path d="M20.992 13a1 1 0 0 0 .97-1.274 10.284 10.284 0 0 0-19.923 0A1 1 0 0 0 3 13z" /></g>
    <g id="ic-4"><circle cx="12" cy="12" r="10" />
  <path d="m16.24 7.76-1.804 5.411a2 2 0 0 1-1.265 1.265L7.76 16.24l1.804-5.411a2 2 0 0 1 1.265-1.265z" /></g>
    <g id="ic-5"><path d="M12 22a1 1 0 0 1 0-20 10 9 0 0 1 10 9 5 5 0 0 1-5 5h-2.25a1.75 1.75 0 0 0-1.4 2.8l.3.4a1.75 1.75 0 0 1-1.4 2.8z" />
  <circle cx="13.5" cy="6.5" r=".5" fill="currentColor" />
  <circle cx="17.5" cy="10.5" r=".5" fill="currentColor" />
  <circle cx="6.5" cy="12.5" r=".5" fill="currentColor" />
  <circle cx="8.5" cy="7.5" r=".5" fill="currentColor" /></g>
    <g id="ic-6"><path d="M3 14h3a2 2 0 0 1 2 2v3a2 2 0 0 1-2 2H5a2 2 0 0 1-2-2v-7a9 9 0 0 1 18 0v7a2 2 0 0 1-2 2h-1a2 2 0 0 1-2-2v-3a2 2 0 0 1 2-2h3" /></g>
    <g id="ic-7"><path d="M12 15v5s3.03-.55 4-2c1.08-1.62 0-5 0-5" />
  <path d="M4.5 16.5c-1.5 1.26-2 5-2 5s3.74-.5 5-2c.71-.84.7-2.13-.09-2.91a2.18 2.18 0 0 0-2.91-.09" />
  <path d="M9 12a22 22 0 0 1 2-3.95A12.88 12.88 0 0 1 22 2c0 2.72-.78 7.5-6 11a22.4 22.4 0 0 1-4 2z" />
  <path d="M9 12H4s.55-3.03 2-4c1.62-1.08 5 .05 5 .05" /></g>
    <g id="ic-8"><path d="M9 10h.01" />
  <path d="M15 10h.01" />
  <path d="M12 2a8 8 0 0 0-8 8v12l3-3 2.5 2.5L12 19l2.5 2.5L17 19l3 3V10a8 8 0 0 0-8-8z" /></g>
    <g id="ic-9"><path d="M9 18V5l12-2v13" />
  <circle cx="6" cy="18" r="3" />
  <circle cx="18" cy="16" r="3" /></g>
    <g id="ic-10"><path d="M2 9.5a5.5 5.5 0 0 1 9.591-3.676.56.56 0 0 0 .818 0A5.49 5.49 0 0 1 22 9.5c0 2.29-1.5 4-3 5.5l-5.492 5.313a2 2 0 0 1-3 .019L5 15c-1.5-1.5-3-3.2-3-5.5" /></g>
    <g id="ic-11"><circle cx="12" cy="12" r="4" />
  <path d="M12 2v2" />
  <path d="M12 20v2" />
  <path d="m4.93 4.93 1.41 1.41" />
  <path d="m17.66 17.66 1.41 1.41" />
  <path d="M2 12h2" />
  <path d="M20 12h2" />
  <path d="m6.34 17.66-1.41 1.41" />
  <path d="m19.07 4.93-1.41 1.41" /></g>
    <g id="ic-12"><path d="M20.985 12.486a9 9 0 1 1-9.473-9.472c.405-.022.617.46.402.803a6 6 0 0 0 8.268 8.268c.344-.215.825-.004.803.401" /></g>
    <g id="ic-13"><path d="M17.5 19H9a7 7 0 1 1 6.71-9h1.79a4.5 4.5 0 1 1 0 9Z" /></g>
    <g id="ic-14"><path d="m15.5 7.5 2.3 2.3a1 1 0 0 0 1.4 0l2.1-2.1a1 1 0 0 0 0-1.4L19 4" />
  <path d="m21 2-9.6 9.6" />
  <circle cx="7.5" cy="15.5" r="5.5" /></g>
    <g id="ic-15"><path d="M10.268 21a2 2 0 0 0 3.464 0" />
  <path d="M3.262 15.326A1 1 0 0 0 4 17h16a1 1 0 0 0 .74-1.673C19.41 13.956 18 12.499 18 8A6 6 0 0 0 6 8c0 4.499-1.411 5.956-2.738 7.326" /></g>
    <g id="ic-16"><path d="M11.017 2.814a1 1 0 0 1 1.966 0l1.051 5.558a2 2 0 0 0 1.594 1.594l5.558 1.051a1 1 0 0 1 0 1.966l-5.558 1.051a2 2 0 0 0-1.594 1.594l-1.051 5.558a1 1 0 0 1-1.966 0l-1.051-5.558a2 2 0 0 0-1.594-1.594l-5.558-1.051a1 1 0 0 1 0-1.966l5.558-1.051a2 2 0 0 0 1.594-1.594z" />
  <path d="M20 2v4" />
  <path d="M22 4h-4" />
  <circle cx="4" cy="20" r="2" /></g>
    <g id="ic-17"><path d="m11.9 12.1 4.514-4.514" />
  <path d="M20.1 2.3a1 1 0 0 0-1.4 0l-1.114 1.114A2 2 0 0 0 17 4.828v1.344a2 2 0 0 1-.586 1.414A2 2 0 0 1 17.828 7h1.344a2 2 0 0 0 1.414-.586L21.7 5.3a1 1 0 0 0 0-1.4z" />
  <path d="m6 16 2 2" />
  <path d="M8.23 9.85A3 3 0 0 1 11 8a5 5 0 0 1 5 5 3 3 0 0 1-1.85 2.77l-.92.38A2 2 0 0 0 12 18a4 4 0 0 1-4 4 6 6 0 0 1-6-6 4 4 0 0 1 4-4 2 2 0 0 0 1.85-1.23z" /></g>
    <g id="ic-18"><path d="M12 3q1 4 4 6.5t3 5.5a1 1 0 0 1-14 0 5 5 0 0 1 1-3 1 1 0 0 0 5 0c0-2-1.5-3-1.5-5q0-2 2.5-4" /></g>
    <g id="ic-19"><path d="M10.5 3 8 9l4 13 4-13-2.5-6" />
  <path d="M17 3a2 2 0 0 1 1.6.8l3 4a2 2 0 0 1 .013 2.382l-7.99 10.986a2 2 0 0 1-3.247 0l-7.99-10.986A2 2 0 0 1 2.4 7.8l2.998-3.997A2 2 0 0 1 7 3z" />
  <path d="M2 9h20" /></g>
    <g id="ic-20"><path d="M12 6v16" />
  <path d="m19 13 2-1a9 9 0 0 1-18 0l2 1" />
  <path d="M9 11h6" />
  <circle cx="12" cy="4" r="2" /></g>
    <g id="ic-21"><circle cx="12" cy="12" r="10" />
  <path d="M8 14s1.5 2 4 2 4-2 4-2" />
  <line x1="9" x2="9.01" y1="9" y2="9" />
  <line x1="15" x2="15.01" y1="9" y2="9" /></g>
    <g id="ic-22"><path d="M11.525 2.295a.53.53 0 0 1 .95 0l2.31 4.679a2.123 2.123 0 0 0 1.595 1.16l5.166.756a.53.53 0 0 1 .294.904l-3.736 3.638a2.123 2.123 0 0 0-.611 1.878l.882 5.14a.53.53 0 0 1-.771.56l-4.618-2.428a2.122 2.122 0 0 0-1.973 0L6.396 21.01a.53.53 0 0 1-.77-.56l.881-5.139a2.122 2.122 0 0 0-.611-1.879L2.16 9.795a.53.53 0 0 1 .294-.906l5.165-.755a2.122 2.122 0 0 0 1.597-1.16z" /></g>
    <g id="ic-23"><line x1="6" x2="10" y1="11" y2="11" />
  <line x1="8" x2="8" y1="9" y2="13" />
  <line x1="15" x2="15.01" y1="12" y2="12" />
  <line x1="18" x2="18.01" y1="10" y2="10" />
  <path d="M17.32 5H6.68a4 4 0 0 0-3.978 3.59c-.006.052-.01.101-.017.152C2.604 9.416 2 14.456 2 16a3 3 0 0 0 3 3c1 0 1.5-.5 2-1l1.414-1.414A2 2 0 0 1 9.828 16h4.344a2 2 0 0 1 1.414.586L17 18c.5.5 1 1 2 1a3 3 0 0 0 3-3c0-1.545-.604-6.584-.685-7.258-.007-.05-.011-.1-.017-.151A4 4 0 0 0 17.32 5z" /></g>
  </defs>
  <g stroke="#0f172a" stroke-width="2" stroke-linecap="round" stroke-linejoin="round" fill="none">
    <use href="#ic-0" transform="translate(30,30) rotate(-18) translate(-12,-12)" />
    <use href="#ic-1" transform="translate(113,31) rotate(-8) translate(-12,-12)" />
    <use href="#ic-2" transform="translate(183,32) rotate(2) translate(-12,-12)" />
    <use href="#ic-3" transform="translate(253,33) rotate(12) translate(-12,-12)" />
    <use href="#ic-4" transform="translate(323,34) rotate(-15) translate(-12,-12)" />
    <use href="#ic-5" transform="translate(33,107) rotate(-5) translate(-12,-12)" />
    <use href="#ic-6" transform="translate(103,108) rotate(5) translate(-12,-12)" />
    <use href="#ic-7" transform="translate(186,109) rotate(15) translate(-12,-12)" />
    <use href="#ic-8" transform="translate(256,110) rotate(-12) translate(-12,-12)" />
    <use href="#ic-9" transform="translate(326,111) rotate(-2) translate(-12,-12)" />
    <use href="#ic-10" transform="translate(36,184) rotate(8) translate(-12,-12)" />
    <use href="#ic-11" transform="translate(106,185) rotate(18) translate(-12,-12)" />
    <use href="#ic-12" transform="translate(176,186) rotate(-9) translate(-12,-12)" />
    <use href="#ic-13" transform="translate(246,174) rotate(1) translate(-12,-12)" />
    <use href="#ic-14" transform="translate(329,175) rotate(11) translate(-12,-12)" />
    <use href="#ic-15" transform="translate(39,248) rotate(-16) translate(-12,-12)" />
    <use href="#ic-16" transform="translate(109,249) rotate(-6) translate(-12,-12)" />
    <use href="#ic-17" transform="translate(179,250) rotate(4) translate(-12,-12)" />
    <use href="#ic-18" transform="translate(249,251) rotate(14) translate(-12,-12)" />
    <use href="#ic-19" transform="translate(319,252) rotate(-13) translate(-12,-12)" />
    <use href="#ic-20" transform="translate(42,325) rotate(-3) translate(-12,-12)" />
    <use href="#ic-21" transform="translate(112,326) rotate(7) translate(-12,-12)" />
    <use href="#ic-22" transform="translate(182,327) rotate(17) translate(-12,-12)" />
    <use href="#ic-23" transform="translate(252,328) rotate(-10) translate(-12,-12)" />
    <use href="#ic-0" transform="translate(322,329) rotate(0) translate(-12,-12)" />
  </g>
</svg>
